<?xml version="1.0" standalone="no"?><!DOCTYPE svg PUBLIC "-//W3C//DTD SVG 1.1//EN" "http://www.w3.org/Graphics/SVG/1.1/DTD/svg11.dtd"><svg t="1564983342472" class="icon" viewBox="0 0 1024 1024" version="1.1" xmlns="http://www.w3.org/2000/svg" p-id="2089" xmlns:xlink="http://www.w3.org/1999/xlink" width="200" height="200"><defs><style type="text/css"></style></defs><path d="M1024 211.869466C1024 182.686632 1000.177629 158.896552 970.914322 158.896552L53.085678 158.896552C23.814868 158.896552 0 182.562781 0 211.869466L0 406.068966 70.62069 406.068966 70.62069 211.869466C70.62069 221.664821 62.718958 229.517241 53.085678 229.517241L970.914322 229.517241C961.196332 229.517241 953.37931 221.710813 953.37931 211.869466L953.37931 335.448276 1024 335.448276 1024 211.869466ZM970.914322 794.482759 53.085678 794.482759C62.803668 794.482759 70.62069 802.289187 70.62069 812.130534L70.62069 406.068966 953.37931 406.068966 953.37931 812.130534C953.37931 802.335179 961.281042 794.482759 970.914322 794.482759ZM1024 335.448276 0 335.448276 0 812.130534C0 841.313368 23.822371 865.103448 53.085678 865.103448L970.914322 865.103448C1000.185132 865.103448 1024 841.437219 1024 812.130534L1024 335.448276ZM342.314178 564.965517C361.815534 564.965517 377.624523 549.156529 377.624523 529.655172 377.624523 510.153816 361.815534 494.344828 342.314178 494.344828L194.206897 494.344828C174.70554 494.344828 158.896552 510.153816 158.896552 529.655172 158.896552 549.156529 174.70554 564.965517 194.206897 564.965517L342.314178 564.965517Z" p-id="2090"></path></svg>