<?xml version="1.0" encoding="utf-8"?>
<!-- Generator: Adobe Illustrator 21.0.0, SVG Export Plug-In . SVG Version: 6.00 Build 0)  -->
<svg version="1.1" id="图层_1" xmlns="http://www.w3.org/2000/svg" xmlns:xlink="http://www.w3.org/1999/xlink" x="0px" y="0px"
	 viewBox="0 0 180 100" style="enable-background:new 0 0 180 100;" xml:space="preserve">
<style type="text/css">
	.st0{fill:#E71C41;}
	.st1{fill:#FFFFFF;}
</style>
<g>
	<polygon class="st0" points="159.5,50.3 116.5,88.3 159.5,88.3 	"/>
	<path class="st1" d="M144.7,83.2c-0.4,0.1-0.8,0-1.1-0.2l-8.5-5.9c-0.6-0.4-0.7-1.2-0.3-1.8c0.4-0.6,1.2-0.7,1.8-0.3l7.4,5.2
		l9.2-13.4c0.4-0.6,1.2-0.7,1.8-0.3c0.6,0.4,0.7,1.2,0.3,1.8l-9.9,14.5C145.2,82.9,145,83.1,144.7,83.2z"/>
	<g>
		<path class="st0" d="M157.5,12v74.3H22.1V12H157.5 M159.5,10H20.1v78.3h139.3V10L159.5,10z"/>
	</g>
</g>
</svg>
